<svg id="Capa_1" enable-background="new 0 0 512 512" height="512" viewBox="0 0 512 512" width="512" xmlns="http://www.w3.org/2000/svg"><g><path d="m272.382 115.413c3.455 2.78 8.379 2.778 11.831-.004l42.467-34.215c10.814-8.712 18.747-20.485 22.762-33.779 3.477-11.512 1.105-23.998-6.351-33.433-10.324-13.062-28.136-17.559-43.423-10.961-8.323 3.456-15.07 7.971-21.402 13.677-6.307-5.685-13.053-10.21-21.402-13.677-15.287-6.598-33.099-2.101-43.422 10.962-7.457 9.435-9.828 21.92-6.351 33.433 4.015 13.294 11.948 25.066 22.762 33.779z" fill="#eb5569"/><g><path d="m343.091 13.983c-10.238-12.954-27.838-17.477-43.038-11.118 5.614 2.346 10.692 6.096 14.66 11.118 7.457 9.435 9.828 21.92 6.351 33.433-4.015 13.294-11.948 25.067-22.762 33.779l-34.202 27.556 8.281 6.663c3.454 2.779 8.379 2.778 11.831-.004l42.467-34.215c10.814-8.712 18.747-20.485 22.762-33.779 3.478-11.513 1.106-23.998-6.35-33.433z" fill="#e53950"/></g><g><path d="m497.818 377.704c10.682-12.227 15.753-29.277 13.753-46.238l-6.673-56.58c-7.208-61.119-49.997-112.835-110.074-133.038l-61.512 20.686c-22.379 7.526-38.738 29.052-41.798 55.001l-13.436 113.931c-2 16.961 3.071 34.01 13.753 46.237 9.351 10.704 22.157 16.737 35.527 16.737h134.933c13.37.001 26.176-6.032 35.527-16.736z" fill="#c86d36"/><path d="m511.571 331.466-6.673-56.579c-7.208-61.119-49.997-112.835-110.074-133.039l-13.824 4.65c53.606 22.768 91.141 71.503 97.85 128.389l6.673 56.579c2 16.961-3.071 34.01-13.753 46.238-9.351 10.704-22.157 16.737-35.527 16.737h26.049c13.37 0 26.176-6.033 35.527-16.737 10.681-12.227 15.753-29.277 13.752-46.238z" fill="#ac5e2e"/><path d="m335.017 394.441c-25.126 0-45.495 20.369-45.495 45.495v72.056h210.606v-72.056c0-25.126-20.369-45.495-45.495-45.495-4.075 0-121.129 0-119.616 0z" fill="#f58a97"/><path d="m454.632 394.441c-1.112 0-10.646 0-23.879 0 25.126 0 45.495 20.369 45.495 45.495v72.056h23.879v-72.056c.001-25.126-20.368-45.495-45.495-45.495z" fill="#f07281"/><path d="m394.825 435.74c-20.461 0-37.048-16.587-37.048-37.048v-89.157h74.096v89.157c0 20.461-16.587 37.048-37.048 37.048z" fill="#ffb09e"/><path d="m357.777 382.84c8.06 3.755 16.792 6.309 25.97 7.423-.011.001-.023.003-.034.004 17.264 2.112 33.78-.873 48.16-7.688v-73.044h-74.096z" fill="#ffa78f"/><path d="m439.276 246.604h42.193c16.222 0 29.372 13.15 29.372 29.372v.181c0 16.222-13.15 29.372-29.372 29.372h-42.193z" fill="#ffa78f"/><path d="m349.832 305.528h-42.193c-16.222 0-29.372-13.15-29.372-29.372v-.181c0-16.222 13.15-29.372 29.372-29.372h42.193z" fill="#ffb09e"/><path d="m393.481 174.226c-47.409.426-85.712 38.983-85.712 86.493v30.663c0 47.51 38.303 86.068 85.712 86.493 47.409-.426 85.712-38.983 85.712-86.493v-30.663c0-47.51-38.302-86.067-85.712-86.493z" fill="#ffcebf"/><g><path d="m394.687 339.756c-13.638 0-24.733-11.095-24.733-24.733 0-3.172 2.572-5.744 5.744-5.744s5.744 2.572 5.744 5.744c0 7.304 5.942 13.246 13.246 13.246s13.246-5.942 13.246-13.246c0-3.172 2.572-5.744 5.744-5.744s5.744 2.572 5.744 5.744c-.001 13.637-11.097 24.733-24.735 24.733z" fill="#ffa799"/></g><path d="m345.436 305.706c-4.631 0-8.066 0-12.772 0-3.172 0-5.744 2.572-5.744 5.744s2.572 5.744 5.744 5.744h12.772c3.172 0 5.744-2.572 5.744-5.744s-2.572-5.744-5.744-5.744z" fill="#fe8f83"/><g><path d="m438.47 299.329c-3.172 0-5.744-2.572-5.744-5.744v-16.466c0-3.172 2.572-5.744 5.744-5.744h7.079c3.172 0 5.744 2.571 5.744 5.744 0 3.172-2.572 5.744-5.744 5.744h-1.336v10.722c0 3.172-2.571 5.744-5.743 5.744z" fill="#5a5a5a"/></g><g><path d="m351.18 299.329c-3.172 0-5.744-2.572-5.744-5.744v-10.722h-1.336c-3.172 0-5.744-2.572-5.744-5.744s2.572-5.744 5.744-5.744h7.079c3.172 0 5.744 2.571 5.744 5.744v16.466c0 3.172-2.571 5.744-5.743 5.744z" fill="#5a5a5a"/></g><path d="m394.861 174.216h-.589c-3.575 0-7.098.221-10.56.643 42.793 5.209 75.944 41.661 75.944 85.861v30.663c0 44.199-33.151 80.652-75.944 85.861 3.461.421 6.984.643 10.56.643h.589c47.775 0 86.503-38.729 86.503-86.503v-30.663c0-47.776-38.729-86.505-86.503-86.505z" fill="#ffb09e"/><path d="m456.985 305.706c-4.631 0-8.066 0-12.772 0-3.172 0-5.744 2.572-5.744 5.744s2.572 5.744 5.744 5.744h12.772c3.172 0 5.744-2.572 5.744-5.744s-2.572-5.744-5.744-5.744z" fill="#fe8f83"/><path d="m367.854 254.234h17.366l37.419-59.285-44.417-19.231c-28.06 5.266-51.345 24.07-62.799 49.38 10.904 17.49 30.303 29.136 52.431 29.136z" fill="#ffb09e"/><path d="m501.219 254.234h-115.999c-34.105 0-61.752-27.647-61.752-61.752v-4.072c0-31.493 25.53-57.023 57.023-57.023h41.22c43.911 0 79.508 35.597 79.508 79.508z" fill="#d77f4a"/><path d="m419.831 131.387h-26.781c44.949 0 81.388 34.775 81.388 77.672v45.175h26.781v-45.175c0-42.897-36.439-77.672-81.388-77.672z" fill="#c86d36"/></g><g><path d="m209.577 395.707h-154.08-4.5-8.166c-23.655 0-42.831 19.176-42.831 42.831v73.454h252.408v-73.454c0-23.655-19.176-42.831-42.831-42.831z" fill="#3c87d0"/><path d="m214.077 395.707h-27c23.655 0 42.831 19.176 42.831 42.831v73.454h27v-73.454c0-23.655-19.176-42.831-42.831-42.831z" fill="#0078c8"/><path d="m128.454 439.629c-20.59 0-37.281-16.691-37.281-37.281v-89.718h74.562v89.718c0 20.59-16.691 37.281-37.281 37.281z" fill="#ffb09e"/><path d="m91.173 384.231c11.008 4.969 23.196 7.785 36.031 7.9 13.814-.124 26.882-3.372 38.531-9.07v-65.931h-74.562z" fill="#ffa78f"/><path d="m174.67 240.319h43.733c16.814 0 30.444 13.63 30.444 30.444v.187c0 16.814-13.63 30.444-30.444 30.444h-43.733z" fill="#ffa78f"/><path d="m135.934 145.2h-75.269c-26.593 0-47.233 23.199-44.139 49.611l9.672 82.562h109.736z" fill="#aa6a51"/><path d="m81.962 301.394h-43.734c-16.814 0-30.444-13.63-30.444-30.444v-.187c0-16.814 13.63-30.444 30.444-30.444h43.733v61.075z" fill="#ffb09e"/><path d="m127.204 165.299c-49.14.441-88.841 40.406-88.841 89.65v31.782c0 49.244 39.701 89.209 88.841 89.65 49.14-.441 88.841-40.406 88.841-89.65v-31.782c-.001-49.243-39.702-89.209-88.841-89.65z" fill="#ffcebf"/><g><path d="m128.316 338.845c-13.819 0-25.062-11.243-25.062-25.062 0-3.288 2.665-5.953 5.953-5.953s5.953 2.665 5.953 5.953c0 7.254 5.902 13.156 13.156 13.156s13.156-5.902 13.156-13.156c0-3.288 2.665-5.953 5.953-5.953s5.953 2.665 5.953 5.953c0 13.82-11.243 25.062-25.062 25.062z" fill="#ffa799"/></g><g><g><path d="m84.397 291.611c-3.288 0-5.953-2.665-5.953-5.953v-16.569c0-3.288 2.665-5.953 5.953-5.953s5.953 2.665 5.953 5.953v16.569c0 3.287-2.666 5.953-5.953 5.953z" fill="#5a5a5a"/></g><g><path d="m172.235 291.611c-3.288 0-5.953-2.665-5.953-5.953v-16.569c0-3.288 2.665-5.953 5.953-5.953s5.953 2.665 5.953 5.953v16.569c.001 3.287-2.665 5.953-5.953 5.953z" fill="#5a5a5a"/></g></g><path d="m78.443 301.877c-4.8 0-8.36 0-13.238 0-3.288 0-5.953 2.665-5.953 5.953s2.665 5.953 5.953 5.953h13.238c3.288 0 5.953-2.665 5.953-5.953.001-3.288-2.665-5.953-5.953-5.953z" fill="#fe8f83"/><path d="m128.634 165.289h-.61c-4.094 0-8.122.28-12.07.812 43.809 5.896 77.59 43.425 77.59 88.849v31.782c0 45.424-33.781 82.953-77.59 88.849 3.948.531 7.976.811 12.07.811h.61c49.518 0 89.661-40.142 89.661-89.66v-31.782c-.001-49.519-40.143-89.661-89.661-89.661z" fill="#ffb09e"/><path d="m191.426 301.877c-4.8 0-8.36 0-13.238 0-3.288 0-5.953 2.665-5.953 5.953s2.665 5.953 5.953 5.953h13.238c3.288 0 5.953-2.665 5.953-5.953s-2.665-5.953-5.953-5.953z" fill="#fe8f83"/><path d="m90.039 240.319h21.482v-73.492c-30.143 5.611-54.988 26.288-66.403 53.935 11.21 12.027 27.182 19.557 44.921 19.557z" fill="#ffb09e"/><path d="m237.883 240.319h-123.094c-33.916 0-61.411-27.495-61.411-61.411v-16.532c0-24.786 20.093-44.88 44.88-44.88h78.955c33.507 0 60.67 27.163 60.67 60.67z" fill="#aa6a51"/><path d="m177.212 117.496h-27c33.507 0 60.67 27.163 60.67 60.671v62.152h27v-62.152c.001-33.508-27.162-60.671-60.67-60.671z" fill="#935b44"/></g></g></svg>